REM MD5 f2669ab10d0e272e9b69c5189382f446
FILE "Euro Demo (Future) 101 (Europe).bin" BINARY
  TRACK 01 MODE2/2352
    INDEX 01 00:00:00
  TRACK 02 AUDIO
    INDEX 00 38:28:02
    INDEX 01 38:30:02
  TRACK 03 AUDIO
    INDEX 00 41:01:57
    INDEX 01 41:03:57
REM LEADOUT 44:05:14
